<?xml version="1.0" standalone="no"?>
<!DOCTYPE svg PUBLIC "-//W3C//DTD SVG 20010904//EN"
 "http://www.w3.org/TR/2001/REC-SVG-20010904/DTD/svg10.dtd">
<svg version="1.0" xmlns="http://www.w3.org/2000/svg"
 width="260.000000pt" height="231.000000pt" viewBox="0 0 260.000000 231.000000"
 preserveAspectRatio="xMidYMid meet">

<g transform="translate(0.000000,231.000000) scale(0.100000,-0.100000)"
fill="#000000" stroke="none">
<path d="M965 2045 c-103 -52 -194 -100 -201 -106 -19 -15 -8 -33 31 -52 34
-16 35 -18 35 -74 0 -113 7 -131 61 -158 46 -24 48 -27 51 -72 4 -56 29 -68
38 -18 7 36 12 36 111 -11 l76 -37 92 48 c87 46 108 69 77 81 -8 3 -51 -13
-94 -36 l-80 -41 -91 46 -91 45 0 58 c0 32 3 61 6 65 3 3 38 -10 77 -29 39
-19 81 -34 93 -34 12 0 77 27 144 60 66 33 125 58 131 55 5 -4 9 -22 9 -41 0
-28 4 -35 18 -32 13 2 18 15 20 56 3 45 7 54 31 66 50 26 55 41 24 64 -25 17
-367 192 -377 192 -2 0 -88 -43 -191 -95z m350 -32 c85 -43 154 -82 152 -88
-2 -5 -72 -45 -157 -89 l-153 -79 -63 31 c-35 18 -64 35 -64 39 0 5 16 18 35
31 35 22 43 36 27 46 -5 3 -32 -6 -61 -20 -29 -13 -59 -24 -67 -24 -18 0 -138
60 -132 66 5 4 321 164 325 164 2 0 73 -35 158 -77z m-400 -185 c23 -10 25
-16 25 -75 0 -65 -5 -72 -41 -53 -16 9 -19 22 -19 75 0 36 2 65 5 65 2 0 16
-5 30 -12z"/>
<path d="M1139 1934 c-10 -12 -9 -18 3 -31 19 -18 38 -10 38 17 0 24 -25 33
-41 14z"/>
<path d="M1583 1791 c-32 -26 -136 -128 -232 -226 l-173 -178 5 -50 c3 -41 11
-56 36 -79 40 -35 110 -39 141 -8 41 41 23 118 -33 136 -32 10 -39 -16 -12
-48 31 -36 23 -58 -20 -58 -42 0 -65 22 -65 64 0 83 128 103 173 27 39 -67 8
-143 -73 -175 -45 -18 -51 -33 -17 -41 40 -11 80 14 175 108 81 81 92 89 92
66 0 -24 16 -49 32 -49 4 0 10 27 14 60 l6 59 52 3 c37 2 51 7 51 18 0 10 -12
16 -32 18 -18 2 -33 6 -33 9 0 3 25 32 56 66 57 61 79 100 70 124 -9 23 -23
14 -50 -32 -24 -41 -60 -75 -78 -75 -5 0 -8 10 -8 21 0 13 31 53 80 103 50 52
80 90 80 104 0 36 -73 82 -131 82 -43 0 -54 -5 -106 -49z m171 -21 c19 -19 18
-20 -52 -92 l-71 -73 -28 18 c-15 10 -40 23 -55 28 -16 6 -28 14 -28 18 0 12
94 99 125 116 36 19 82 13 109 -15z m-199 -172 c14 -6 25 -15 25 -21 0 -14
-60 -87 -72 -87 -22 0 -107 45 -108 57 0 6 15 23 33 37 35 28 80 33 122 14z
m58 -94 c11 -11 -24 -66 -76 -121 -27 -29 -53 -53 -58 -53 -4 0 -11 10 -14 23
-13 39 -57 89 -93 104 -31 13 -34 16 -18 25 23 13 64 2 103 -28 17 -13 38 -24
45 -24 8 0 32 18 53 40 40 41 47 45 58 34z"/>
<path d="M940 1466 c0 -25 22 -51 33 -39 4 3 7 19 7 35 0 21 -5 28 -20 28 -14
0 -20 -7 -20 -24z"/>
<path d="M1177 993 c-9 -8 -9 -726 -1 -747 9 -24 55 -20 61 4 7 25 20 25 58 0
51 -34 114 -20 141 31 18 35 20 438 3 488 -20 57 -90 77 -144 41 -52 -35 -55
-30 -55 85 l0 105 -28 0 c-16 0 -32 -3 -35 -7z m191 -245 c9 -9 12 -71 12
-220 0 -200 -1 -208 -21 -218 -26 -14 -57 -7 -92 21 l-27 20 0 179 0 179 33
25 c34 28 75 34 95 14z"/>
<path d="M1930 890 c0 -57 -1 -60 -25 -60 -22 0 -25 -4 -25 -36 0 -27 5 -37
19 -41 18 -5 20 -18 23 -230 l3 -225 37 -34 c43 -39 83 -44 138 -16 45 22 60
53 60 130 l0 62 -30 0 c-29 0 -30 -1 -30 -48 0 -56 -21 -92 -55 -92 -49 0 -55
27 -55 236 0 106 3 199 6 208 5 12 20 16 61 16 l54 0 -3 33 c-3 32 -4 32 -60
35 l-58 3 0 59 c0 60 0 60 -30 60 l-30 0 0 -60z"/>
<path d="M518 813 c-40 -26 -53 -59 -53 -138 0 -113 23 -140 129 -154 32 -4
62 -14 67 -22 5 -8 9 -49 9 -91 0 -90 -12 -108 -70 -108 -50 0 -70 27 -70 92
l0 48 -35 0 -35 0 0 -47 c0 -117 39 -163 140 -163 113 0 146 51 138 213 -4 79
-7 90 -31 114 -21 22 -38 28 -87 31 -71 5 -90 23 -90 87 0 58 22 85 70 85 50
0 70 -21 70 -71 0 -38 2 -40 28 -37 26 3 27 5 27 61 0 48 -5 61 -27 84 -23 23
-38 28 -90 30 -47 3 -70 -1 -90 -14z"/>
<path d="M858 801 l-33 -29 0 -242 0 -242 34 -30 c32 -28 37 -30 102 -26 59 3
73 8 96 31 24 24 28 36 31 102 l4 75 -36 0 -36 0 0 -58 c0 -32 -5 -63 -12 -70
-7 -7 -31 -12 -55 -12 -56 0 -63 15 -63 129 l0 91 101 0 101 0 -4 126 -3 126
-33 29 c-29 26 -40 29 -97 29 -57 0 -68 -3 -97 -29z m150 -53 c7 -7 12 -42 12
-85 l0 -73 -65 0 -65 0 0 66 c0 88 10 104 63 104 24 0 48 -5 55 -12z"/>
<path d="M1606 811 c-49 -33 -66 -79 -50 -139 5 -18 13 -22 33 -20 23 3 26 8
29 43 4 52 17 65 61 65 53 0 61 -13 61 -97 l0 -73 -69 0 c-107 0 -141 -41
-141 -170 1 -89 15 -142 45 -167 33 -29 66 -29 117 -1 l41 23 14 -23 c9 -12
26 -22 39 -22 l24 0 0 265 0 265 -29 32 c-24 27 -36 32 -87 35 -47 3 -65 0
-88 -16z m134 -380 l0 -89 -34 -21 c-74 -46 -111 -12 -104 98 5 88 16 101 84
101 l54 0 0 -89z"/>
</g>
</svg>
